<?xml version="1.0" standalone="no"?>
<!DOCTYPE svg PUBLIC "-//W3C//DTD SVG 20010904//EN"
 "http://www.w3.org/TR/2001/REC-SVG-20010904/DTD/svg10.dtd">
<svg version="1.0" xmlns="http://www.w3.org/2000/svg"
 width="780.000000pt" height="789.000000pt" viewBox="0 0 780.000000 789.000000"
 preserveAspectRatio="xMidYMid meet">
<metadata>
Created by potrace 1.16, written by Peter Selinger 2001-2019
</metadata>
<g transform="translate(0.000000,789.000000) scale(0.100000,-0.100000)"
fill="#000000" stroke="none">
<path d="M0 5000 l0 -2890 26 0 c14 0 34 -4 44 -10 13 -7 21 -6 30 5 7 8 18
15 26 15 7 0 20 7 29 16 9 9 27 16 41 16 13 0 27 4 30 9 3 5 -9 9 -26 9 -18 0
-29 4 -25 10 3 6 19 10 35 10 30 0 47 14 30 25 -22 14 -8 21 40 20 34 -1 50 3
50 11 0 10 7 10 32 2 27 -10 33 -9 49 11 10 12 39 26 71 34 68 15 238 11 282
-7 46 -19 232 -49 265 -43 43 9 54 -4 37 -44 -8 -19 -29 -91 -46 -159 -31
-122 -51 -170 -70 -170 -11 0 -178 -112 -243 -162 -53 -42 -167 -134 -187
-152 -17 -15 -247 -196 -339 -267 -33 -26 -88 -71 -121 -102 l-60 -56 0 -565
0 -566 3900 0 3900 0 0 3945 0 3945 -3900 0 -3900 0 0 -2890z m6125 2216 c67
-28 83 -108 37 -191 -48 -88 -149 -145 -256 -145 -50 0 -96 55 -96 114 0 52
20 103 52 132 48 44 167 102 211 104 10 0 33 -6 52 -14z m-5878 -507 c25 -21
44 -68 37 -93 -7 -29 -39 -61 -74 -74 -37 -14 -86 9 -106 51 -14 30 -14 37 0
70 24 58 99 82 143 46z m4609 -946 c16 -48 29 -78 50 -109 25 -36 74 -168 74
-198 0 -26 -27 -73 -46 -80 -9 -3 -23 -1 -30 5 -33 27 -40 -16 -17 -100 6 -23
5 -24 -36 -17 -23 3 -47 7 -54 9 -6 1 -12 -6 -15 -15 -2 -13 12 -21 70 -38 40
-12 88 -33 106 -46 29 -22 32 -23 33 -7 1 10 0 23 -1 28 -7 29 2 201 12 219 6
11 12 49 13 84 1 35 6 67 11 70 10 8 242 -2 294 -13 19 -4 38 -12 41 -17 3 -5
13 -6 22 -2 12 4 17 18 17 46 l0 41 48 -8 c26 -4 63 -9 82 -10 19 -1 62 -8 95
-15 33 -7 71 -13 85 -14 36 -2 111 -57 215 -156 83 -80 157 -140 307 -247 32
-24 62 -43 65 -43 4 0 14 -6 22 -13 15 -13 139 -56 204 -71 43 -10 22 -29 -24
-21 -26 5 -39 3 -39 -5 0 -6 -5 -8 -11 -5 -6 4 -17 -2 -25 -13 -8 -11 -27 -23
-44 -27 -16 -4 -34 -13 -38 -22 -6 -9 -29 -17 -58 -20 -27 -3 -54 -10 -61 -15
-7 -5 -27 -9 -45 -7 -18 1 -41 -2 -50 -6 -10 -4 -24 -5 -32 -2 -8 3 -23 -5
-35 -17 -30 -32 -15 -71 31 -81 18 -4 38 -11 43 -15 6 -4 33 -15 60 -25 28
-10 55 -22 60 -26 6 -4 36 -12 68 -19 31 -7 57 -17 57 -21 0 -12 -56 -49 -74
-49 -9 0 -16 -4 -16 -10 0 -5 -19 -19 -42 -30 -42 -20 -55 -21 -210 -18 -16 1
-28 4 -28 8 0 9 -113 0 -123 -10 -5 -4 17 -25 49 -46 81 -55 154 -129 196
-200 28 -47 58 -46 58 1 0 22 -6 38 -15 41 -8 4 -15 15 -15 26 0 19 3 18 48
-8 26 -15 65 -39 86 -53 42 -28 84 -55 134 -85 29 -19 53 -59 28 -50 -6 2 -16
0 -22 -4 -16 -10 -28 -52 -15 -52 6 0 11 -4 11 -10 0 -5 -6 -7 -12 -5 -7 3
-35 -10 -62 -28 -89 -57 -204 -115 -245 -122 -23 -4 -43 -10 -46 -15 -3 -4 15
-17 39 -29 25 -11 47 -25 51 -31 9 -15 112 -90 124 -90 7 0 60 -27 89 -45 1
-1 0 -9 -4 -18 -3 -9 -20 -19 -37 -22 -18 -4 -41 -13 -52 -19 -34 -22 -203
-59 -237 -53 -122 21 -128 28 -128 144 0 45 5 94 10 109 8 21 7 31 -6 45 -28
31 -50 1 -58 -79 -7 -65 -25 -142 -36 -152 -3 -3 -14 -23 -25 -44 -13 -25 -28
-41 -42 -43 -13 -1 -23 0 -23 5 0 9 -75 92 -84 92 -3 0 -6 -21 -6 -47 -1 -43
-2 -46 -14 -30 -24 31 -29 -10 -8 -57 28 -62 42 -109 42 -143 0 -33 48 -201
72 -248 21 -43 13 -67 -20 -59 -41 10 -102 54 -108 80 -3 12 -14 30 -24 39
-17 15 -19 14 -39 -13 -12 -17 -21 -40 -21 -52 0 -16 -4 -20 -15 -16 -10 4
-19 -2 -25 -18 -12 -32 -137 -141 -162 -141 -12 0 -26 9 -32 20 -36 62 -96
141 -114 150 -12 5 -22 15 -22 21 0 10 -8 21 -49 70 -25 30 -77 167 -73 191 1
6 -2 14 -8 18 -5 3 -10 17 -10 31 0 27 -39 50 -52 30 -5 -7 -12 -4 -22 9 -11
14 -15 16 -16 6 0 -11 -3 -12 -11 -4 -17 17 -42 -11 -34 -37 4 -11 10 -18 15
-15 16 10 21 -15 15 -70 -7 -54 -7 -54 -39 -50 -87 12 -108 19 -119 36 -9 14
-24 19 -59 19 -53 0 -62 -14 -28 -43 11 -9 20 -22 20 -28 0 -8 -7 -6 -18 4
-22 20 -39 22 -44 6 -3 -9 -11 -8 -28 2 l-25 14 23 3 c19 3 15 8 -28 29 -27
13 -50 29 -50 33 0 5 -8 11 -19 15 -10 3 -26 23 -36 45 -10 22 -21 40 -26 40
-4 0 -10 13 -14 30 -4 16 -18 38 -33 49 -15 11 -23 23 -19 28 5 4 19 -4 31
-19 13 -17 31 -28 47 -28 13 0 34 -6 45 -14 21 -15 74 -10 74 6 0 6 6 5 15 -2
20 -17 38 -2 31 26 -6 22 -4 24 26 22 27 -3 33 1 33 17 0 11 -5 19 -12 18 -8
-2 -10 4 -6 14 5 13 2 15 -15 11 -18 -5 -22 -2 -22 19 0 19 -5 24 -22 23 -43
-4 -48 0 -48 33 0 19 -3 37 -7 41 -13 12 -41 129 -36 143 3 8 26 24 51 36 24
12 43 27 41 32 -3 10 -36 24 -117 50 -50 17 -134 97 -174 168 -29 50 -63 62
-88 32 -7 -8 -17 -15 -22 -15 -5 0 -29 -14 -54 -31 -28 -19 -54 -29 -70 -27
-24 3 -25 6 -28 73 -3 65 -26 160 -47 195 -5 8 -16 30 -24 49 -29 64 -36 67
-66 29 -26 -30 -28 -31 -34 -13 -15 43 -31 68 -51 77 -46 21 -48 48 -11 124
19 38 38 79 41 92 9 28 -1 62 -19 62 -10 0 -11 5 -2 25 13 26 54 45 157 70 36
9 74 18 85 21 14 4 37 -8 73 -36 48 -39 58 -42 139 -50 49 -5 115 -13 147 -16
l59 -7 -7 29 c-17 68 -18 85 -6 99 11 13 17 11 50 -15 58 -46 77 -38 43 18
-33 53 -71 91 -97 98 -31 7 -34 34 -6 41 28 7 20 28 -11 29 -40 1 -44 3 -57
34 -21 46 -12 180 12 180 6 0 27 -13 46 -29 19 -15 60 -41 90 -56 79 -40 108
-62 112 -88 4 -27 51 -51 84 -43 27 7 31 21 11 41 -8 7 -20 42 -27 77 -7 35
-17 69 -23 76 -15 19 -2 129 22 192 22 58 94 150 117 150 8 0 17 -8 20 -17z
m-4317 -398 c16 -8 31 -22 35 -30 9 -25 7 -83 -3 -89 -5 -3 -7 -15 -4 -25 4
-17 0 -18 -29 -14 -26 3 -40 -2 -62 -22 -15 -14 -46 -29 -68 -34 -36 -8 -43
-7 -64 14 -30 30 -31 80 -4 115 11 14 20 29 20 33 0 16 27 35 71 51 56 19 73
19 108 1z m1117 -683 c44 -32 161 -166 225 -257 63 -90 159 -257 159 -278 0
-24 17 -56 48 -89 29 -32 27 -64 -9 -147 -23 -54 -50 -78 -72 -64 -28 17 -169
179 -210 242 -113 172 -178 327 -213 503 -14 71 -15 90 -4 103 18 21 32 19 76
-13z m924 3 c41 -14 122 -34 180 -45 257 -47 253 -46 280 -78 29 -35 50 -77
109 -212 48 -112 59 -153 71 -280 17 -179 -17 -279 -113 -328 -45 -24 -50 -24
-105 -12 -107 25 -183 73 -299 188 -95 94 -203 250 -203 293 0 38 -20 76 -60
114 -35 33 -100 153 -100 185 0 19 6 20 126 19 69 -1 139 -5 155 -9 23 -7 31
-5 36 6 8 22 -63 102 -123 135 -96 55 -77 64 46 24z m1025 -490 c12 -34 43
-93 69 -133 51 -79 76 -138 76 -183 0 -23 4 -29 23 -29 12 0 31 7 41 15 29 22
39 19 82 -20 22 -19 42 -35 45 -35 4 0 36 -34 72 -76 76 -88 97 -141 97 -241
0 -79 -18 -154 -52 -215 -20 -37 -30 -45 -76 -57 -86 -23 -62 -44 68 -60 45
-6 100 -8 121 -5 l39 7 0 -42 c0 -53 -36 -204 -60 -252 -27 -52 -91 -110 -220
-198 -191 -130 -480 -290 -560 -309 -50 -12 -257 -1 -301 16 -30 12 -54 45
-63 90 -4 17 -11 32 -15 32 -4 0 -13 10 -19 23 -11 24 -39 60 -89 116 -37 41
-42 61 -13 61 10 0 23 7 28 16 8 15 12 14 40 -6 l30 -22 31 33 c17 19 33 42
36 51 3 9 14 20 25 23 27 9 31 31 13 76 -15 39 -17 41 -52 35 -92 -14 -151
-18 -151 -10 0 17 31 54 45 54 23 0 122 50 141 71 11 12 13 19 5 19 -28 0 3
19 57 36 126 39 232 98 232 130 0 11 -9 8 -37 -10 -21 -14 -58 -28 -83 -33
-69 -12 -341 -5 -471 13 -68 10 -137 13 -165 10 -143 -20 -154 -15 -154 68 0
57 -3 65 -25 80 -14 10 -30 28 -35 42 -10 24 -49 47 -105 60 -19 4 -24 8 -15
11 8 3 29 12 46 20 48 22 87 19 140 -11 42 -23 52 -25 71 -15 13 7 23 18 23
25 0 7 5 14 11 16 18 6 14 112 -6 173 -16 47 -30 66 -72 99 -51 41 -79 79 -74
104 1 8 -3 20 -10 28 -17 21 8 47 39 41 19 -4 23 -1 19 15 -7 24 19 35 44 20
10 -7 26 -12 34 -12 15 0 64 -47 65 -62 0 -4 14 -22 30 -40 17 -18 30 -37 30
-42 0 -23 83 -84 123 -90 22 -4 46 -11 52 -15 5 -5 21 -11 35 -14 14 -3 57
-15 95 -26 128 -37 220 -25 290 41 59 54 83 129 115 353 4 28 8 42 9 31 1 -15
6 -17 28 -11 35 8 34 6 40 54 3 22 9 38 13 36 4 -3 10 5 13 16 3 12 10 18 16
14 7 -4 11 5 11 23 0 21 7 32 28 43 15 8 31 20 36 28 10 16 11 14 51 -94z
m3043 -130 c139 -108 234 -140 401 -133 104 4 109 3 100 -14 -5 -10 -22 -20
-37 -24 -15 -3 -43 -13 -62 -22 -28 -14 -66 -17 -191 -17 -224 1 -264 17 -316
124 -28 58 -43 171 -22 171 5 0 7 6 3 13 -4 6 3 2 17 -10 13 -13 61 -52 107
-88z m-2493 -184 c22 -6 60 -22 85 -36 25 -13 57 -29 72 -35 15 -6 28 -19 30
-28 2 -10 13 -17 27 -17 15 0 25 -7 26 -16 3 -20 -43 -32 -83 -22 -23 5 -24 4
-17 -18 4 -13 8 -37 8 -54 -1 -38 -24 -125 -34 -125 -4 0 -10 -11 -13 -24 -3
-14 -15 -28 -26 -31 -14 -4 -20 -15 -20 -36 0 -16 -5 -29 -11 -29 -8 0 -9 11
-5 32 4 20 3 29 -3 23 -5 -6 -11 -21 -14 -35 -2 -14 -5 0 -5 30 -1 35 2 50 7
41 7 -11 10 -10 14 5 9 30 7 114 -3 176 -9 60 -16 70 -97 158 -29 31 -50 59
-47 62 5 6 40 -1 109 -21z m-1973 -258 c14 -12 36 -14 123 -8 132 9 190 -4
198 -44 3 -14 8 -36 12 -48 10 -33 -17 -39 -53 -13 -37 28 -147 31 -206 6 -33
-14 -37 -19 -32 -41 6 -23 4 -25 -26 -25 -110 1 -251 107 -234 175 6 24 7 24
104 18 64 -4 103 -10 114 -20z m158 -819 c0 -24 3 -26 30 -20 24 4 32 2 36
-12 3 -9 14 -35 25 -57 23 -48 24 -68 4 -85 -8 -7 -15 -18 -15 -25 0 -19 -27
-38 -35 -25 -3 5 -15 10 -26 10 -17 0 -19 -7 -19 -64 0 -46 -4 -65 -14 -69
-15 -6 -46 22 -46 41 0 7 -4 12 -9 12 -5 0 -12 13 -16 29 -3 16 -13 35 -20 41
-31 26 7 177 58 227 30 30 47 28 47 -3z m-1088 -364 c-11 -46 -140 -91 -267
-94 -33 0 -66 -5 -72 -9 -7 -4 -30 -4 -50 1 -21 5 -51 10 -67 11 -29 1 -66 25
-66 43 0 14 22 9 35 -9 12 -17 9 -17 273 -9 23 0 42 4 42 9 0 4 18 7 40 7 27
0 43 5 46 15 3 8 21 17 40 21 37 7 42 15 19 34 -16 13 -20 42 -8 54 9 9 40
-55 35 -74z m1446 -29 c23 -24 31 -43 37 -93 10 -72 7 -200 -5 -208 -15 -10
-51 -91 -44 -101 6 -11 74 49 74 67 0 6 12 22 28 35 15 14 39 41 53 59 21 28
29 32 40 23 20 -16 12 -86 -12 -112 -10 -11 -19 -24 -19 -29 0 -5 -25 -34 -56
-65 -59 -59 -119 -88 -254 -122 -35 -9 -73 -21 -84 -27 -13 -7 -26 -6 -43 3
-20 11 -26 11 -33 -1 -8 -12 -10 -12 -10 3 0 10 -7 41 -16 69 -14 41 -15 52
-4 58 11 7 10 12 -4 25 -26 26 -12 116 28 183 17 29 38 65 46 80 18 34 83 93
106 96 9 1 22 10 29 19 7 9 22 17 34 17 24 0 51 21 51 39 0 20 28 11 58 -18z
m-1158 -160 c-11 -33 -20 -63 -20 -66 0 -11 31 -4 77 19 69 34 164 57 241 59
37 1 73 6 80 10 39 25 41 -74 3 -154 -12 -23 -21 -50 -21 -58 0 -9 -9 -29 -20
-46 -11 -16 -20 -44 -20 -61 0 -37 -21 -84 -38 -84 -8 0 -10 -8 -6 -25 5 -20
2 -25 -13 -25 -27 0 -43 -20 -43 -54 l-1 -31 -13 25 c-10 16 -11 30 -5 42 5 9
9 26 9 37 0 47 -82 10 -96 -43 -3 -14 -10 -28 -14 -31 -5 -3 -16 -30 -25 -61
-17 -57 -29 -63 -38 -17 -3 16 -11 53 -17 83 -7 30 -10 82 -7 115 4 43 1 66
-9 80 -13 18 -17 16 -67 -40 -28 -33 -78 -87 -109 -120 -32 -33 -58 -67 -58
-77 0 -9 -4 -20 -10 -23 -5 -3 -10 -21 -11 -38 0 -18 -3 -27 -5 -20 -3 7 -11
10 -19 7 -24 -9 -38 36 -36 116 2 94 6 128 14 137 4 3 7 21 7 39 0 18 5 36 10
39 6 3 10 15 10 25 0 18 5 29 51 120 36 71 124 157 183 179 28 10 52 15 54 11
2 -4 -6 -35 -18 -69z m1419 -671 c36 -25 91 -96 69 -87 -16 6 -28 -10 -28 -39
0 -8 70 -84 155 -169 138 -138 170 -175 149 -175 -7 0 -84 58 -99 75 -36 40
-241 198 -267 205 -22 7 -49 5 -89 -5 -31 -8 -67 -15 -80 -15 l-22 0 20 23
c11 12 27 53 37 91 23 97 37 116 87 116 25 0 52 -8 68 -20z m1090 -9 c7 -5 9
-11 3 -14 -5 -4 -15 -34 -22 -67 -7 -33 -16 -62 -19 -65 -4 -2 -5 -19 -3 -38
3 -27 9 -36 28 -40 29 -5 34 -1 34 31 0 23 25 60 90 130 34 35 45 41 36 15 -8
-20 28 -56 52 -51 9 2 17 10 18 18 1 8 2 20 2 27 3 17 72 63 95 63 16 0 14 -5
-10 -37 -28 -36 -35 -74 -34 -195 0 -21 -4 -38 -8 -38 -5 0 -11 -8 -14 -17 -2
-10 -7 9 -12 42 -6 42 -10 54 -15 40 -5 -14 -16 -20 -36 -20 -20 0 -32 -7 -39
-22 -6 -14 -20 -23 -40 -25 -25 -2 -30 -7 -30 -28 0 -45 -73 -72 -97 -36 -4 6
-8 -6 -8 -26 0 -24 6 -40 16 -46 15 -8 15 -13 3 -41 -8 -17 -17 -31 -21 -31
-13 0 -49 94 -55 143 -6 49 6 123 32 208 8 26 15 60 15 77 l0 31 -30 -17 c-17
-9 -33 -25 -36 -34 -3 -10 -10 -18 -15 -18 -5 0 -9 -9 -9 -19 0 -24 -16 -36
-23 -19 -4 8 -6 7 -6 -3 -1 -9 -24 -41 -52 -70 -28 -30 -57 -67 -64 -84 -16
-36 -65 -85 -65 -65 0 22 75 140 129 205 28 32 51 63 51 67 0 12 39 49 69 64
29 16 69 18 90 5z m2620 -219 c22 -20 41 -43 41 -50 0 -16 14 -15 48 1 35 18
73 8 91 -24 20 -35 7 -75 -29 -94 -31 -16 -80 -20 -80 -7 0 5 -16 26 -35 48
-40 44 -77 109 -68 118 4 3 1 6 -5 6 -7 0 -12 9 -12 20 0 11 2 20 4 20 2 0 22
-17 45 -38z m-4111 -291 c48 -85 83 -132 141 -190 141 -141 237 -189 366 -186
l50 2 -45 -20 c-32 -15 -67 -21 -120 -21 -71 -1 -78 1 -135 38 -69 45 -222
188 -279 261 -54 69 -136 148 -168 162 -32 14 -36 31 -10 40 9 4 21 13 25 20
6 10 24 13 60 11 l51 -3 64 -114z m4913 22 c32 -19 59 -68 59 -106 0 -40 -41
-90 -87 -107 -38 -13 -46 -12 -78 3 -39 19 -75 69 -75 105 0 92 103 151 181
105z m-5707 -485 c13 -37 -5 -74 -72 -145 -45 -48 -66 -63 -96 -69 -35 -6 -42
-4 -63 20 -42 49 -28 102 46 176 27 27 64 53 82 58 45 12 91 -6 103 -40z"/>
</g>
</svg>
